<svg xmlns="http://www.w3.org/2000/svg" clip-rule="evenodd" fill-rule="evenodd" stroke-linejoin="round" stroke-miterlimit="2" version="1.1" viewBox="0 0 512 512" xml:space="preserve">
    <link xmlns="" type="text/css" id="dark-mode" rel="stylesheet" href="" />
    <g fill-rule="nonzero">
        <path d="m512 256c0-141.38-114.62-256-256-256s-256 114.62-256 256c0 127.78 93.616 233.68 216 252.89v-178.89h-65v-74h65v-56.4c0-64.16 38.219-99.6 96.695-99.6 28.009 0 57.305 5 57.305 5v63h-32.281c-31.801 0-41.719 19.733-41.719 39.978v48.022h71l-11.35 74h-59.65v178.89c122.38-19.205 216-125.11 216-252.89z" fill="#1877f2" />
        <path d="m355.65 330 11.35-74h-71v-48.022c0-20.245 9.917-39.978 41.719-39.978h32.281v-63s-29.297-5-57.305-5c-58.476 0-96.695 35.44-96.695 99.6v56.4h-65v74h65v178.89c13.033 2.045 26.392 3.11 40 3.11s26.966-1.065 40-3.11v-178.89h59.65z" fill="#fff" />
    </g>
</svg>